<?xml version="1.0" standalone="no"?>
<!DOCTYPE svg PUBLIC "-//W3C//DTD SVG 20010904//EN"
 "http://www.w3.org/TR/2001/REC-SVG-20010904/DTD/svg10.dtd">
<svg version="1.0" xmlns="http://www.w3.org/2000/svg"
 width="527.000000pt" height="474.000000pt" viewBox="0 0 527.000000 474.000000"
 preserveAspectRatio="xMidYMid meet">

<g transform="translate(0.000000,474.000000) scale(0.100000,-0.100000)"
fill="#000000" stroke="none">
<path d="M2244 4564 c-120 -16 -315 -71 -427 -119 -197 -86 -345 -212 -416
-355 -63 -130 -98 -290 -106 -483 l-4 -119 -78 -48 c-134 -83 -247 -191 -279
-268 -35 -85 -3 -200 75 -261 46 -37 148 -85 215 -102 25 -6 49 -15 51 -19 3
-5 -3 -28 -14 -52 -52 -122 -66 -321 -31 -453 l18 -70 -31 -25 c-142 -111
-297 -301 -379 -465 -111 -221 -149 -471 -112 -733 6 -42 6 -42 -26 -42 -46 0
-98 -28 -116 -63 -54 -103 98 -268 306 -333 33 -10 75 -34 106 -60 94 -79 245
-151 409 -195 44 -12 152 -50 239 -86 195 -79 285 -103 392 -103 174 0 284 68
284 176 l0 24 163 0 c124 0 169 4 191 15 45 24 217 20 285 -5 151 -58 370 -94
566 -95 161 0 218 9 273 43 65 42 61 123 -9 187 -38 34 -115 75 -142 75 -34 1
-38 16 -16 66 12 27 23 51 26 53 2 3 87 7 190 10 184 6 186 6 205 31 12 17 32
97 59 238 l41 212 45 0 c80 0 162 61 202 150 31 67 29 175 -4 249 l-26 56 87
180 c104 215 113 257 66 305 -36 36 -45 36 -137 10 -212 -61 -525 -114 -525
-88 0 4 27 40 59 79 67 80 134 207 152 290 6 31 10 94 7 141 -5 107 -30 162
-165 363 -56 83 -136 209 -180 280 -43 72 -85 140 -93 152 -14 21 -11 25 47
78 86 78 127 161 125 255 -2 112 -44 188 -126 226 -60 28 -104 30 -207 8 l-76
-17 -73 39 c-74 39 -74 39 -128 139 -105 195 -187 305 -287 385 -175 139 -383
183 -671 144z m358 -129 c175 -37 324 -159 432 -356 l35 -64 -162 -1 c-265 -1
-619 -61 -917 -155 -139 -44 -179 -52 -256 -55 -106 -4 -181 -28 -251 -81
l-46 -35 6 78 c7 87 36 200 69 271 77 163 362 331 658 386 47 9 94 18 105 20
49 11 265 6 327 -8z m1037 -691 c27 -19 51 -72 51 -111 -1 -43 -33 -104 -81
-150 -23 -24 -46 -43 -50 -43 -4 0 -34 28 -67 62 l-60 63 80 26 c100 32 130
65 86 93 -27 17 -1011 -129 -1310 -194 -50 -11 -99 -20 -108 -20 -13 0 -50 56
-50 74 0 7 134 45 262 75 242 57 520 94 833 111 121 7 247 16 280 20 94 12
109 11 134 -6z m-1934 -72 c-40 -3 -46 -6 -30 -13 16 -8 15 -9 -9 -5 -44 6
-115 -30 -98 -49 4 -5 1 -5 -5 -1 -7 4 -14 2 -14 -3 -1 -6 -3 -15 -4 -21 -1
-5 -3 -17 -4 -26 0 -8 -5 -13 -10 -10 -5 3 -11 -8 -15 -25 -7 -35 -6 -114 1
-86 2 9 12 17 20 17 14 0 14 -2 -1 -19 -16 -18 -16 -20 8 -44 14 -14 28 -21
33 -16 5 5 9 -1 10 -13 1 -13 -1 -18 -5 -13 -9 14 -32 13 -31 0 3 -22 12 -35
20 -29 5 3 13 -5 18 -18 5 -13 18 -31 29 -41 20 -18 21 -18 31 0 10 15 11 14
7 -9 -5 -27 15 -45 36 -31 7 3 8 1 4 -5 -3 -6 2 -16 13 -22 14 -7 22 -7 26 0
4 6 35 24 71 40 45 20 64 34 63 47 0 16 -1 16 -8 -1 -7 -19 -8 -19 -13 2 -4
12 -2 20 3 16 5 -3 9 2 9 10 0 9 -6 15 -12 14 -7 -2 -13 5 -13 14 0 9 -4 20
-8 24 -4 4 -7 15 -7 24 0 20 -44 63 -54 53 -4 -4 -4 1 0 10 5 13 1 20 -15 24
-11 3 -18 9 -16 14 10 15 -31 29 -45 16 -12 -10 -12 -9 -2 5 11 14 9 18 -15
26 -15 6 -21 11 -12 11 27 2 107 -59 142 -107 19 -26 44 -73 57 -104 24 -59
47 -75 76 -53 34 24 2 119 -71 210 -22 28 -22 31 -6 31 11 0 17 -6 14 -13 -5
-11 15 -18 40 -14 4 1 4 -7 -2 -17 -7 -13 -3 -27 13 -55 13 -20 26 -34 31 -29
4 4 5 -2 1 -13 -3 -11 -1 -27 4 -35 8 -12 10 -11 10 7 0 12 4 25 10 28 6 4 7
-1 3 -12 -6 -16 -5 -17 12 -3 17 14 18 13 12 -2 -4 -12 -2 -15 9 -11 20 7 18
19 -8 39 -14 10 -16 14 -6 11 13 -5 16 0 14 27 -4 42 -14 59 -33 52 -8 -3 -12
-2 -10 2 3 4 1 17 -4 29 -6 16 -14 21 -26 17 -13 -4 -14 -3 -5 4 11 7 7 16
-18 40 -17 18 -34 31 -38 29 -4 -1 -9 3 -11 8 -8 20 -42 36 -64 30 -15 -4 -18
-3 -8 3 10 7 7 12 -15 20 -16 6 -22 11 -14 11 29 1 95 -36 147 -83 28 -25 83
-93 122 -150 39 -57 77 -106 86 -110 8 -3 81 10 161 30 80 19 151 33 158 31
11 -4 -82 -27 -109 -27 -8 0 -14 -5 -13 -11 2 -6 -4 -14 -12 -16 -13 -4 -13
-3 0 6 13 10 13 11 0 10 -32 -1 -154 -37 -158 -47 -5 -16 48 -63 66 -58 23 7
314 62 427 80 153 26 556 95 630 108 39 7 73 16 76 20 7 11 92 -79 153 -162
26 -35 95 -143 152 -240 58 -96 136 -217 174 -269 38 -51 82 -119 97 -150 25
-50 28 -67 27 -156 0 -80 -5 -111 -22 -153 -63 -153 -217 -302 -387 -378 -69
-30 -151 -51 -271 -69 -53 -8 -106 -21 -118 -28 -21 -15 -139 -234 -192 -357
-15 -36 -42 -117 -60 -180 -18 -63 -33 -109 -33 -102 -1 23 -21 2 -48 -51 -14
-29 -28 -54 -32 -57 -13 -11 -10 -31 9 -62 11 -18 20 -40 20 -47 0 -8 -12 8
-26 37 -14 28 -49 73 -78 99 -52 48 -53 49 -53 109 -1 74 -32 141 -95 200 -66
64 -119 86 -220 93 -104 7 -119 18 -148 107 -12 34 -38 89 -59 121 -49 74
-158 186 -173 177 -6 -4 -8 -3 -5 3 4 6 -26 35 -66 64 -39 29 -110 92 -157
139 -68 67 -95 103 -130 174 -44 86 -45 91 -48 196 -3 86 1 126 18 195 24 96
66 210 109 297 l28 56 -35 7 c-19 4 -46 14 -59 22 -22 15 -25 14 -49 -8 -13
-13 -22 -29 -20 -36 3 -7 0 -12 -7 -10 -7 1 -11 -6 -9 -16 2 -9 -4 -20 -13
-23 -9 -4 -14 -13 -11 -21 3 -8 1 -11 -4 -8 -12 7 -12 7 -1 -31 6 -22 5 -35
-6 -50 -14 -18 -14 -18 -11 0 2 10 -3 21 -10 23 -7 3 -12 1 -10 -4 1 -4 -3
-18 -10 -30 -8 -15 -9 -23 -2 -23 5 0 10 5 10 12 0 6 2 9 5 6 10 -10 -8 -39
-21 -34 -8 3 -14 0 -15 -7 -1 -7 -2 -36 -4 -65 -2 -58 -15 -85 -15 -33 0 21
-4 30 -11 25 -6 -3 -9 -14 -6 -23 2 -9 -2 -23 -10 -30 -8 -7 -12 -20 -9 -28 3
-8 -2 -29 -11 -46 -10 -20 -17 -61 -19 -107 -6 -175 -6 -172 -15 -100 -5 39
-4 90 2 128 12 78 65 240 114 346 37 82 119 216 132 216 4 0 31 -10 59 -21 33
-14 61 -19 78 -15 27 7 62 49 52 64 -3 5 -41 30 -85 55 -115 67 -178 151 -188
251 -14 138 73 236 207 233 l45 -1 -50 -4z m-112 -79 c-6 -16 -5 -17 12 -3 10
8 16 10 12 3 -4 -7 0 -16 10 -22 11 -6 13 -11 5 -11 -7 0 -11 -4 -8 -8 2 -4
-5 -9 -17 -9 -20 -2 -20 -1 -4 8 9 6 15 15 11 20 -4 7 -10 6 -19 -1 -9 -8 -12
-5 -10 12 3 26 3 28 10 28 2 0 1 -8 -2 -17z m77 12 c0 -2 -10 -9 -22 -15 -22
-11 -22 -10 -4 4 21 17 26 19 26 11z m74 -11 c-12 -10 -14 -14 -4 -11 8 2 27
-4 42 -14 14 -11 32 -18 40 -16 7 2 10 2 5 0 -4 -3 -5 -9 -1 -14 8 -14 -9 -10
-31 7 -32 24 -89 36 -122 24 -26 -9 -27 -9 -9 5 11 8 30 15 42 15 13 0 26 5
29 10 3 6 11 10 18 10 6 0 2 -7 -9 -16z m1569 -99 c38 -36 34 -43 -5 -10 -30
26 -36 27 -103 20 -38 -3 -88 -10 -110 -15 -63 -13 -216 -33 -221 -28 -2 3 65
15 149 27 83 12 159 24 167 26 54 11 97 4 123 -20z m-20 -30 c-3 -9 -8 -14
-10 -11 -3 3 -2 9 2 15 9 16 15 13 8 -4z m-1349 -3 c3 -5 -1 -9 -9 -9 -8 0
-12 4 -9 9 3 4 7 8 9 8 2 0 6 -4 9 -8z m761 -33 c-88 -15 -180 -30 -205 -33
l-45 -6 45 11 c74 18 303 57 335 57 17 0 -42 -13 -130 -29z m-757 -14 c-3 -3
-9 2 -12 12 -6 14 -5 15 5 6 7 -7 10 -15 7 -18z m-543 -126 c4 -13 1 -19 -9
-19 -52 0 -299 -143 -309 -179 -3 -11 -2 -20 2 -19 3 1 14 -2 25 -7 12 -5 58
5 140 33 66 22 135 43 153 47 l32 6 -57 -115 c-36 -72 -63 -115 -72 -115 -11
0 -12 2 -2 6 11 4 31 39 37 63 0 3 6 15 13 28 7 12 10 28 6 34 -5 7 -3 8 6 3
10 -6 12 -4 7 9 -4 10 -3 15 3 11 6 -3 10 3 10 15 0 13 4 19 12 14 7 -4 8 -3
4 4 -4 7 -14 12 -22 12 -8 0 -13 -4 -10 -9 3 -5 -2 -15 -11 -22 -12 -10 -14
-10 -9 -1 4 7 2 12 -4 12 -6 0 -9 4 -6 9 7 11 -177 -50 -185 -62 -4 -6 -20 -5
-39 2 -28 9 -31 9 -20 -4 7 -8 19 -15 26 -15 8 0 14 -4 14 -10 0 -5 -6 -7 -14
-4 -8 3 -17 0 -21 -6 -3 -6 -3 -9 2 -8 4 1 20 -6 35 -16 15 -10 33 -14 39 -10
8 4 9 3 5 -4 -4 -7 -2 -12 5 -12 7 0 10 -2 7 -5 -9 -10 -81 27 -115 59 -44 40
-44 85 -2 149 39 59 142 146 228 191 l66 35 12 -41 c7 -22 15 -49 18 -59z
m220 1 c-3 -5 -1 -10 6 -10 7 0 10 -3 6 -6 -9 -9 -28 6 -22 17 4 5 8 9 11 9 3
0 2 -4 -1 -10z m-25 -214 c0 -2 -8 -10 -17 -17 -16 -13 -17 -12 -4 4 13 16 21
21 21 13z m-340 -136 c20 -6 21 -8 5 -8 -11 0 -29 3 -40 8 -25 11 1 11 35 0z
m240 -100 c0 -5 -5 -10 -11 -10 -5 0 -7 5 -4 10 3 6 8 10 11 10 2 0 4 -4 4
-10z m-94 -167 c-10 -10 -19 5 -10 18 6 11 8 11 12 0 2 -7 1 -15 -2 -18z m141
-5 c-3 -8 -6 -5 -6 6 -1 11 2 17 5 13 3 -3 4 -12 1 -19z m-110 -18 c1 -16 -1
-17 -12 -7 -11 10 -8 19 10 27 1 0 1 -9 2 -20z m-30 -32 c-3 -8 -6 -5 -6 6 -1
11 2 17 5 13 3 -3 4 -12 1 -19z m-17 -18 c0 -5 -4 -10 -10 -10 -5 0 -10 5 -10
10 0 6 5 10 10 10 6 0 10 -4 10 -10z m147 -232 c-3 -8 -6 -5 -6 6 -1 11 2 17
5 13 3 -3 4 -12 1 -19z m-174 -44 c-3 -9 0 -14 8 -12 10 2 13 -6 12 -28 -2
-22 2 -34 14 -38 24 -9 29 1 16 34 -16 43 -7 37 16 -10 11 -22 16 -38 11 -35
-5 3 -16 2 -25 -1 -16 -6 -16 -8 -1 -16 8 -5 18 -7 20 -6 2 2 16 -8 29 -21 15
-13 31 -20 38 -16 7 5 10 4 5 -3 -3 -6 2 -13 13 -17 11 -3 25 -13 33 -22 11
-14 8 -13 -22 2 -91 47 -143 90 -161 133 -20 47 -25 87 -9 77 5 -3 7 -12 3
-21z m152 -105 c11 -16 1 -19 -13 -3 -7 8 -8 14 -3 14 5 0 13 -5 16 -11z m-25
-14 c7 -8 9 -15 6 -15 -4 0 -14 7 -22 15 -9 8 -11 15 -6 15 5 0 15 -7 22 -15z
m-96 -139 c64 -42 198 -107 324 -157 106 -42 219 -98 234 -116 6 -8 -10 -2
-38 14 -27 16 -52 30 -57 31 -4 1 -20 8 -36 17 -16 8 -51 22 -78 31 -26 9 -85
34 -131 55 -45 21 -86 38 -90 38 -19 -3 -33 2 -27 10 5 9 -32 27 -47 23 -5 -1
-8 3 -8 9 0 5 -5 7 -12 3 -7 -4 -8 -3 -4 4 5 8 -1 12 -16 12 -19 0 -20 -2 -8
-11 13 -9 13 -10 0 -6 -8 2 -14 11 -12 20 2 12 -3 15 -19 12 -13 -3 -27 -9
-33 -15 -5 -5 -14 -10 -20 -10 -5 0 -2 6 8 13 21 16 12 47 -15 47 -10 0 -19
-5 -19 -11 0 -5 4 -7 10 -4 6 3 7 -1 4 -9 -3 -9 -10 -16 -16 -16 -5 0 -6 5 -2
11 4 7 1 10 -7 7 -8 -3 -13 -11 -11 -17 1 -6 -6 -14 -15 -18 -15 -5 -49 -37
-110 -105 -6 -7 -25 -26 -42 -42 -17 -16 -28 -32 -26 -36 3 -5 -2 -10 -10 -14
-8 -3 -12 -12 -9 -21 3 -8 11 -12 18 -8 6 4 5 -1 -3 -10 -8 -10 -16 -15 -19
-12 -6 5 -31 -25 -32 -38 0 -5 5 -5 12 -1 7 4 8 3 4 -5 -6 -9 -11 -9 -21 -1
-9 8 -16 2 -29 -24 -9 -20 -21 -38 -26 -41 -15 -9 -12 -27 3 -20 6 4 4 0 -5
-8 -10 -8 -18 -21 -18 -30 0 -8 -5 -17 -11 -19 -7 -2 -12 -18 -13 -35 0 -17
-5 -28 -10 -25 -5 3 -6 -2 -3 -12 5 -11 3 -15 -5 -10 -7 5 -9 0 -6 -14 4 -12
3 -20 -2 -17 -7 5 -21 -46 -25 -91 -1 -11 -5 -25 -9 -32 -3 -6 -9 -69 -11
-139 -3 -76 -2 -120 4 -108 7 17 9 13 13 -20 3 -22 9 -51 12 -65 5 -21 4 -20
-8 5 -18 36 -21 9 -4 -32 6 -15 13 -44 13 -63 1 -19 7 -36 14 -38 6 -2 9 -8 6
-13 -9 -13 63 -161 75 -154 6 3 7 0 4 -10 -4 -10 -2 -15 7 -13 7 2 14 -3 15
-9 1 -7 2 -18 3 -24 0 -5 6 -7 13 -3 6 4 8 3 5 -2 -8 -14 7 -35 29 -38 10 -2
18 -11 18 -19 -1 -9 2 -15 6 -14 5 1 15 -7 24 -18 12 -16 14 -17 12 -4 -1 10
-8 24 -14 32 -8 9 -9 18 -4 21 15 9 29 -16 27 -46 -1 -22 6 -33 37 -53 46 -31
50 -43 6 -18 -18 10 -66 52 -108 93 -212 210 -277 570 -165 905 63 187 161
342 318 498 68 67 113 105 120 100 7 -4 39 -25 71 -47z m201 44 c3 -6 -1 -7
-9 -4 -18 7 -21 14 -7 14 6 0 13 -4 16 -10z m105 -50 c41 -21 71 -39 65 -39
-5 0 -44 18 -85 39 -41 21 -70 39 -65 39 6 0 44 -18 85 -39z m135 -60 c8 -13
-5 -13 -25 0 -13 8 -13 10 2 10 9 0 20 -4 23 -10z m59 -25 c20 -8 36 -18 36
-20 0 -5 -70 22 -79 30 -8 9 6 5 43 -10z m2533 -2 c-2 -5 -39 -83 -83 -175
-71 -149 -82 -167 -107 -172 -16 -3 -41 -15 -57 -26 -31 -22 -70 -94 -70 -129
0 -12 -14 -39 -31 -60 -34 -43 -50 -131 -30 -169 8 -15 8 -35 -3 -79 -8 -32
-17 -70 -20 -85 -5 -24 -11 -28 -41 -28 -37 0 -85 -18 -85 -32 0 -12 46 -28
81 -28 29 0 30 -1 23 -37 -10 -61 -34 -177 -37 -179 -1 -1 -73 -4 -159 -6
l-157 -5 -4 26 c-4 23 -4 23 -6 -5 -1 -30 -4 -32 -51 -38 -48 -6 -51 -5 -81
29 -18 20 -37 34 -43 32 -6 -2 -22 -23 -36 -47 l-25 -43 -127 -31 -126 -31
-13 45 c-21 69 -43 65 -78 -13 l-29 -65 -64 -11 c-34 -6 -73 -14 -84 -17 -22
-6 -22 -6 -8 63 8 37 21 111 29 163 14 89 90 398 101 410 3 3 37 14 77 25 58
17 72 24 72 40 0 17 -9 21 -67 25 l-66 5 29 75 c16 41 62 136 101 210 l73 135
105 16 c58 9 123 22 145 28 56 15 63 14 67 -11 6 -41 41 -29 58 20 8 23 19 42
25 42 6 0 38 16 70 36 56 33 62 35 102 25 23 -6 71 -11 107 -11 l66 0 0 -50
c0 -38 4 -52 17 -57 21 -8 49 26 63 77 l10 37 113 22 c61 11 141 30 177 40 75
22 83 24 77 14z m-3238 -35 c-5 -10 -11 -18 -12 -18 -2 0 -3 8 -3 18 0 10 6
19 13 19 8 0 9 -6 2 -19z m487 -71 c49 -13 114 -35 144 -49 30 -15 80 -38 112
-51 31 -14 59 -31 63 -36 3 -6 11 -11 17 -11 7 0 -1 15 -18 33 l-29 32 36 -33
c47 -43 87 -112 65 -112 -21 0 -66 -21 -66 -31 0 -5 26 -26 58 -48 31 -22 70
-51 87 -64 l30 -25 -34 -83 c-39 -95 -81 -169 -97 -169 -42 0 -214 38 -284 62
-99 35 -145 60 -236 129 -36 28 -68 49 -70 46 -7 -7 15 -89 28 -104 5 -7 7
-17 3 -23 -4 -6 -3 -9 2 -8 5 2 26 -17 48 -41 22 -24 64 -60 93 -78 52 -33 53
-35 36 -54 -9 -10 -21 -19 -26 -19 -5 0 -2 7 6 16 17 17 21 34 7 34 -4 0 -25
11 -45 25 -20 13 -36 22 -36 19 0 -3 -16 14 -36 38 -49 59 -49 59 -24 8 13
-25 38 -64 57 -87 19 -23 32 -47 28 -53 -3 -6 -23 -19 -43 -29 -88 -45 -168
-152 -236 -314 -9 -21 -22 -37 -29 -35 -16 6 -52 107 -71 202 -27 130 -16 379
25 553 6 26 34 95 62 153 39 81 65 119 113 168 61 61 63 62 116 62 30 0 94
-11 144 -23z m799 -501 c45 -35 72 -88 76 -151 l4 -50 -42 -3 c-38 -3 -43 -1
-43 18 0 34 -37 97 -73 124 -19 15 -38 41 -45 62 l-11 36 49 -4 c33 -3 61 -14
85 -32z m379 -250 c-3 -15 -8 -25 -11 -23 -2 3 -1 17 3 31 3 15 8 25 11 23 2
-3 1 -17 -3 -31z m-1039 0 c19 -8 35 -21 35 -28 0 -10 -2 -10 -8 -1 -10 16
-61 35 -74 27 -7 -4 -8 -2 -4 4 9 15 10 15 51 -2z m241 -27 c40 -25 65 -84 72
-171 5 -67 4 -68 -20 -68 -14 0 -39 3 -55 6 -29 6 -30 8 -32 60 -1 60 -19 112
-56 160 -14 18 -25 36 -25 39 0 12 85 -7 116 -26z m-443 -4 c-3 -9 -8 -14 -10
-11 -3 3 -2 9 2 15 9 16 15 13 8 -4z m801 -5 c53 -5 95 -15 104 -23 18 -18 42
-118 42 -174 l0 -43 -179 0 -178 0 -7 75 c-4 41 -13 95 -20 119 -13 43 -13 45
8 49 40 8 141 7 230 -3z m-529 -32 l16 -33 -20 25 c-20 24 -26 40 -16 40 2 0
12 -15 20 -32z m951 -4 c-4 -14 -9 -24 -12 -21 -3 2 -2 17 2 31 3 15 9 25 11
22 3 -3 2 -17 -1 -32z m-186 0 c40 -34 60 -84 60 -150 l0 -54 -44 0 -43 0 -7
75 c-4 41 -13 93 -21 115 -13 37 -13 40 5 40 10 0 32 -12 50 -26z m-1100 -249
c-17 -110 -30 -211 -30 -225 0 -36 25 -60 98 -94 34 -16 62 -33 62 -37 0 -8
-81 -49 -96 -48 -5 0 10 9 34 19 23 11 42 23 42 28 0 10 -121 68 -133 64 -5
-1 -6 2 -3 7 4 5 2 12 -4 16 -5 3 -10 21 -10 38 0 56 59 442 66 434 2 -2 -10
-93 -26 -202z m174 173 c7 -5 4 -8 -6 -8 -12 0 -18 7 -17 23 0 15 2 17 6 7 3
-8 11 -18 17 -22z m205 -50 l1 -36 -52 20 c-29 11 -55 22 -57 24 -9 8 64 -9
76 -18 15 -12 26 21 18 59 -4 23 -4 24 4 8 5 -11 10 -36 10 -57z m-239 -52 c0
-3 -4 -8 -10 -11 -5 -3 -10 -1 -10 4 0 6 5 11 10 11 6 0 10 -2 10 -4z m-23
-88 c-3 -8 -6 -5 -6 6 -1 11 2 17 5 13 3 -3 4 -12 1 -19z m253 -18 c0 -11 -2
-20 -4 -20 -2 0 -6 9 -9 20 -3 11 -1 20 4 20 5 0 9 -9 9 -20z m189 -15 c4 -5
-45 -295 -51 -301 -3 -2 -26 -7 -51 -10 -47 -7 -47 -7 -47 23 0 30 37 266 46
292 3 10 16 12 52 6 26 -4 49 -9 51 -10z m-1075 -31 c7 -19 2 -18 -19 6 -16
17 -16 20 -3 15 9 -4 19 -13 22 -21z m623 4 c-3 -8 -6 -5 -6 6 -1 11 2 17 5
13 3 -3 4 -12 1 -19z m609 7 c-3 -8 -8 -44 -12 -79 -8 -74 -14 -70 129 -81 63
-5 91 -4 102 5 12 10 15 9 16 -6 0 -18 1 -18 9 1 16 36 10 -7 -8 -70 l-18 -60
-177 -3 c-131 -2 -177 1 -177 9 0 7 12 77 27 156 l27 143 44 0 c35 0 43 -3 38
-15z m170 -16 c-3 -17 -6 -38 -6 -45 0 -10 -13 -14 -41 -14 -41 0 -41 0 -35
31 3 17 6 38 6 45 0 10 13 14 41 14 41 0 41 0 35 -31z m114 20 c0 -5 -4 -7
-10 -4 -6 3 -10 -4 -11 -17 0 -13 -3 -17 -6 -10 -3 7 -2 19 1 27 6 17 26 20
26 4z m130 -3 c0 -14 -46 -236 -56 -267 -4 -15 -74 -33 -74 -19 0 3 11 61 26
130 14 69 28 135 30 148 4 18 11 22 39 22 24 0 35 -5 35 -14z m-773 -43 c-3
-10 -5 -2 -5 17 0 19 2 27 5 18 2 -10 2 -26 0 -35z m630 -35 c-3 -7 -5 -2 -5
12 0 14 2 19 5 13 2 -7 2 -19 0 -25z m-640 -35 c-3 -10 -5 -2 -5 17 0 19 2 27
5 18 2 -10 2 -26 0 -35z m610 -5 c-3 -8 -6 -5 -6 6 -1 11 2 17 5 13 3 -3 4
-12 1 -19z m968 -24 c-28 -23 -134 -72 -170 -79 -16 -3 -3 5 30 18 33 13 74
32 90 41 30 18 30 18 3 12 -15 -3 -29 -2 -33 3 -3 6 14 12 37 14 24 2 48 4 53
5 6 1 1 -6 -10 -14z m-2294 -17 c-6 -8 -8 -17 -4 -21 4 -4 -1 -4 -11 0 -18 7
-18 8 0 21 23 17 30 17 15 0z m706 -24 c-3 -10 -5 -4 -5 12 0 17 2 24 5 18 2
-7 2 -21 0 -30z m1486 30 c-7 -2 -21 -2 -30 0 -10 3 -4 5 12 5 17 0 24 -2 18
-5z m-54 -7 c-2 -2 -26 -6 -54 -9 -34 -4 -42 -3 -25 3 25 8 87 13 79 6z m-562
-38 c-3 -8 -6 -5 -6 6 -1 11 2 17 5 13 3 -3 4 -12 1 -19z m428 12 c-11 -5 -27
-9 -35 -9 -9 0 -8 4 5 9 11 5 27 9 35 9 9 0 8 -4 -5 -9z m-80 -20 c-11 -5 -29
-8 -40 -8 -16 0 -15 2 5 8 34 11 60 11 35 0z m-1228 -47 c-3 -10 -5 -4 -5 12
0 17 2 24 5 18 2 -7 2 -21 0 -30z m1160 31 c-3 -3 -12 -4 -19 -1 -8 3 -5 6 6
6 11 1 17 -2 13 -5z m-1754 -35 c27 -11 52 -17 57 -14 4 3 10 1 12 -3 1 -5 40
-21 86 -37 46 -15 82 -29 79 -31 -5 -6 -259 81 -292 100 -32 18 -19 15 58 -15z
m1714 25 c-3 -3 -12 -4 -19 -1 -8 3 -5 6 6 6 11 1 17 -2 13 -5z m258 -4 c-11
-5 -29 -8 -40 -8 -16 0 -15 2 5 8 34 11 60 11 35 0z m-308 -6 c-3 -3 -12 -4
-19 -1 -8 3 -5 6 6 6 11 1 17 -2 13 -5z m-59 -11 c-10 -2 -28 -2 -40 0 -13 2
-5 4 17 4 22 1 32 -1 23 -4z m275 0 c-7 -2 -21 -2 -30 0 -10 3 -4 5 12 5 17 0
24 -2 18 -5z m-100 -10 c-18 -2 -48 -2 -65 0 -18 2 -4 4 32 4 36 0 50 -2 33
-4z m-1503 -83 c-8 -5 -19 -10 -25 -10 -5 0 -3 5 5 10 8 5 20 10 25 10 6 0 3
-5 -5 -10z"/>
<path d="M2020 3420 c0 -5 5 -10 11 -10 5 0 7 -5 3 -12 -4 -7 -3 -8 4 -4 6 4
9 13 5 21 -6 17 -23 20 -23 5z"/>
<path d="M3483 3030 c-36 -15 -55 -54 -54 -115 1 -102 35 -179 93 -215 83 -50
148 0 148 113 0 100 -45 182 -117 213 -37 16 -40 16 -70 4z m84 -62 c19 -25
22 -48 7 -62 -31 -32 -78 14 -60 60 7 17 40 18 53 2z"/>
<path d="M2349 3022 c-37 -4 -108 -68 -130 -116 -24 -54 -24 -148 0 -201 36
-80 117 -126 194 -111 91 18 147 98 147 207 -1 141 -91 235 -211 221z m120
-103 c32 -58 -19 -111 -74 -75 -28 18 -35 72 -13 94 21 21 71 10 87 -19z"/>
<path d="M1487 2936 c-3 -8 0 -19 7 -25 10 -9 12 -6 8 14 -5 29 -8 31 -15 11z"/>
<path d="M3163 2724 c-24 -9 -68 -39 -98 -68 -47 -45 -55 -57 -55 -89 0 -50
45 -99 144 -157 l76 -45 0 -50 c-1 -108 -39 -197 -103 -235 -24 -15 -50 -20
-102 -20 -89 0 -132 20 -164 78 -19 36 -27 43 -50 40 -22 -3 -26 -8 -29 -38
-4 -49 31 -98 93 -129 39 -21 67 -27 135 -29 81 -4 89 -2 150 30 65 34 66 34
95 16 66 -40 148 -31 209 23 39 33 60 81 44 97 -7 7 -24 -1 -54 -23 -25 -19
-60 -37 -78 -41 -40 -7 -92 14 -89 36 2 8 10 49 18 90 9 41 15 92 13 114 -2
33 1 40 27 53 55 29 102 72 124 115 20 38 22 48 12 83 -16 59 -45 101 -92 132
-35 23 -55 28 -113 30 -45 2 -87 -3 -113 -13z"/>
<path d="M2896 1780 c5 -5 46 -21 91 -33 l81 -24 16 33 16 34 -107 0 c-71 0
-104 -3 -97 -10z"/>
<path d="M1060 3060 c0 -5 5 -10 11 -10 5 0 7 5 4 10 -3 6 -8 10 -11 10 -2 0
-4 -4 -4 -10z"/>
<path d="M1070 3036 c0 -2 6 -9 14 -15 11 -9 16 -9 22 0 4 8 3 9 -4 5 -7 -4
-12 -2 -12 3 0 6 -4 11 -10 11 -5 0 -10 -2 -10 -4z"/>
<path d="M1371 2294 c0 -11 3 -14 6 -6 3 7 2 16 -1 19 -3 4 -6 -2 -5 -13z"/>
<path d="M1340 2081 c0 -6 4 -13 10 -16 6 -3 7 1 4 9 -7 18 -14 21 -14 7z"/>
<path d="M1036 1802 c-3 -5 1 -9 9 -9 8 0 12 4 9 9 -3 4 -7 8 -9 8 -2 0 -6 -4
-9 -8z"/>
<path d="M3503 1623 c-23 -9 -15 -52 11 -59 43 -11 91 -1 95 20 6 35 -59 59
-106 39z"/>
<path d="M3973 1549 c-10 -12 -34 -40 -53 -61 l-35 -39 -52 51 c-52 50 -89 63
-99 35 -11 -26 4 -59 47 -104 l41 -44 -51 -47 c-52 -48 -63 -78 -37 -99 17
-14 41 -5 71 29 11 12 32 31 48 42 l27 20 47 -41 c52 -47 66 -50 87 -20 18 27
12 45 -32 91 l-35 37 42 47 c35 40 41 54 39 83 -4 43 -29 52 -55 20z"/>
<path d="M3336 1510 c-41 -46 -51 -100 -17 -100 21 0 77 59 92 97 21 56 -25
58 -75 3z"/>
<path d="M3242 1317 c-6 -7 -14 -32 -18 -54 -5 -36 -3 -45 19 -67 41 -41 61
-26 53 42 -10 81 -29 109 -54 79z"/>
<path d="M3351 1130 c-22 -13 -3 -47 35 -65 48 -23 67 -7 38 31 -23 31 -55 46
-73 34z"/>
<path d="M3510 1016 c0 -39 84 -83 97 -50 4 12 -3 26 -25 46 -41 35 -72 37
-72 4z"/>
<path d="M4295 3580 c-3 -5 -13 -36 -21 -67 -8 -32 -19 -70 -26 -86 -16 -41
-100 -111 -160 -134 -47 -18 -53 -24 -56 -52 -3 -29 0 -33 60 -61 103 -49 158
-110 182 -204 18 -66 31 -86 57 -86 22 0 49 36 49 65 0 40 31 113 63 149 18
20 64 53 102 74 57 31 70 42 70 62 0 19 -10 30 -45 49 -123 65 -173 122 -186
210 -8 60 -28 91 -59 91 -13 0 -27 -4 -30 -10z m135 -323 c24 -16 25 -17 5
-28 -11 -7 -42 -34 -68 -61 l-48 -49 -27 32 c-14 18 -43 44 -64 59 l-38 28 49
36 c28 19 57 46 66 60 l17 25 41 -43 c23 -23 53 -49 67 -59z"/>
</g>
</svg>
