<?xml version="1.0" standalone="no"?>
<!DOCTYPE svg PUBLIC "-//W3C//DTD SVG 20010904//EN"
 "http://www.w3.org/TR/2001/REC-SVG-20010904/DTD/svg10.dtd">
<svg version="1.0" xmlns="http://www.w3.org/2000/svg"
 width="1024.000000pt" height="1024.000000pt" viewBox="0 0 1024.000000 1024.000000"
 preserveAspectRatio="xMidYMid meet">

<g transform="translate(0.000000,1024.000000) scale(0.100000,-0.100000)"
fill="#000000" stroke="none">
<path d="M4736 9089 c-172 -18 -464 -92 -626 -159 -196 -81 -408 -217 -511
-327 -66 -71 -128 -167 -167 -258 -73 -173 -123 -443 -126 -678 l-2 -137 -39
-21 c-196 -105 -405 -290 -465 -412 -59 -120 -41 -247 51 -352 73 -83 220
-156 426 -211 7 -2 3 -22 -13 -63 -87 -214 -104 -451 -49 -666 l25 -100 -42
-35 c-151 -122 -327 -318 -441 -490 -122 -184 -225 -433 -263 -635 -25 -134
-30 -419 -10 -538 9 -52 16 -100 16 -106 0 -6 -18 -11 -43 -11 -56 0 -143 -43
-169 -84 -25 -40 -20 -124 12 -186 65 -128 248 -256 443 -310 54 -15 79 -29
122 -68 116 -106 274 -191 468 -252 253 -79 393 -128 550 -193 247 -103 417
-138 577 -118 216 28 330 114 318 241 l-3 38 245 4 c234 3 247 4 285 26 38 22
49 23 180 19 128 -3 148 -6 230 -36 100 -36 283 -79 480 -113 175 -29 486 -32
585 -5 180 49 234 131 170 257 -37 72 -150 146 -273 180 -26 7 -46 16 -44 19
2 3 17 36 35 72 l31 67 68 7 c37 4 156 8 265 9 181 1 198 3 218 21 44 40 57
87 125 450 20 105 38 197 40 205 4 11 21 15 67 16 78 0 138 27 201 90 132 132
163 344 75 505 l-32 57 83 169 c144 291 174 363 179 423 3 45 0 61 -20 90 -46
67 -89 74 -224 34 -136 -40 -316 -81 -449 -103 -149 -25 -305 -37 -305 -24 0
5 16 25 36 44 51 48 136 164 178 241 82 148 124 320 112 455 -14 150 -56 243
-224 486 -65 94 -179 271 -252 392 -72 121 -143 235 -157 254 l-26 33 34 27
c114 88 177 171 217 285 21 61 24 83 19 156 -15 257 -189 384 -447 325 -139
-32 -138 -32 -248 25 l-101 51 -65 125 c-198 376 -370 573 -599 687 -202 101
-445 136 -731 106z m419 -191 c90 -13 208 -55 280 -99 77 -46 192 -154 260
-245 51 -67 165 -250 165 -263 0 -4 -107 -6 -238 -6 -269 -1 -492 -26 -812
-91 -264 -54 -605 -148 -732 -203 -35 -15 -55 -17 -108 -10 -140 17 -305 -36
-416 -133 -19 -17 -37 -28 -40 -25 -11 10 16 209 42 312 39 156 90 251 186
346 99 99 167 145 330 226 343 170 750 242 1083 191z m1529 -999 c36 -28 54
-67 62 -131 9 -84 -22 -154 -111 -247 l-73 -76 -43 50 c-24 28 -65 72 -92 98
-27 26 -48 49 -46 50 2 2 57 20 122 40 103 34 119 42 133 69 14 27 14 31 -2
49 -21 24 -68 25 -196 4 -51 -8 -271 -40 -488 -70 -527 -74 -997 -153 -1257
-210 -62 -14 -118 -25 -126 -25 -7 0 -22 23 -33 52 -10 29 -20 55 -22 59 -5
12 279 92 473 133 368 77 744 121 1250 146 121 6 247 15 280 19 107 15 140 13
169 -10z m-2641 -119 c118 -44 219 -144 367 -364 l76 -111 49 0 c28 0 138 22
245 48 261 63 826 161 1238 216 l133 18 37 -27 c79 -57 194 -175 270 -277 44
-58 144 -212 222 -342 124 -208 188 -304 332 -505 144 -199 166 -404 67 -624
-41 -92 -104 -175 -207 -274 -197 -189 -423 -290 -742 -329 -145 -17 -154 -24
-237 -181 -187 -351 -223 -442 -307 -770 -36 -139 -71 -271 -79 -292 l-13 -39
-14 34 c-33 81 -109 176 -180 223 -23 15 -25 22 -25 104 0 76 -4 95 -31 152
-42 89 -127 179 -211 223 -81 42 -148 57 -250 57 -74 0 -76 1 -113 38 -26 26
-44 59 -63 116 -37 109 -96 205 -185 298 -90 94 -112 108 -302 188 -219 93
-473 221 -587 295 l-103 67 -26 81 c-30 96 -45 260 -32 366 11 91 54 235 123
406 78 195 203 415 236 415 6 0 36 -12 67 -26 81 -37 133 -37 171 0 53 51 43
69 -76 130 -187 98 -305 278 -290 443 14 146 88 228 242 267 38 10 142 -3 198
-24z m-566 -555 c-21 -2 -136 -49 -211 -87 -207 -103 -285 -176 -225 -209 30
-16 76 -6 217 46 124 46 250 80 259 71 3 -3 -17 -45 -44 -93 -28 -48 -63 -117
-78 -153 -40 -90 -37 -88 -96 -79 -199 31 -349 127 -349 222 0 13 14 51 30 84
51 101 204 234 375 325 l70 37 27 -82 c14 -45 25 -82 25 -82z m43 -1774 c113
-64 219 -114 435 -202 254 -105 334 -154 415 -257 34 -43 70 -103 70 -117 0
-3 -12 -5 -26 -5 -28 0 -94 -28 -94 -40 0 -3 35 -30 78 -58 42 -28 99 -71 126
-94 l49 -44 -38 -94 c-20 -52 -57 -133 -81 -179 -24 -46 -41 -88 -37 -93 3 -6
-2 -8 -13 -4 -11 3 -64 12 -119 21 -284 44 -491 130 -662 274 -40 34 -76 61
-79 61 -14 0 7 -97 31 -147 36 -73 140 -181 219 -227 36 -21 66 -41 66 -43 0
-3 -13 -20 -29 -39 -49 -55 -80 -116 -101 -197 -20 -80 -89 -542 -92 -622 -3
-58 17 -77 141 -141 l94 -47 -29 -24 c-16 -13 -63 -36 -105 -53 l-77 -29 -203
68 c-223 74 -313 115 -404 184 -374 281 -514 857 -339 1390 41 127 127 300
211 427 60 89 114 152 244 283 l166 169 46 -35 c26 -20 87 -58 137 -86z m4282
-118 c-10 -21 -65 -136 -123 -255 -90 -189 -107 -218 -127 -218 -35 0 -95 -35
-130 -75 -37 -42 -57 -85 -67 -146 -5 -27 -19 -57 -38 -78 -58 -67 -80 -168
-53 -249 15 -45 15 -53 -3 -128 -11 -43 -23 -95 -26 -115 l-7 -36 -64 -6 c-61
-4 -114 -26 -114 -47 0 -17 38 -30 99 -32 34 -2 61 -6 61 -10 0 -10 -50 -281
-55 -298 -4 -13 -28 -15 -142 -15 -76 0 -180 -4 -230 -8 l-93 -8 5 108 4 108
-10 -100 c-5 -55 -11 -105 -13 -111 -2 -6 -37 -16 -77 -23 -61 -11 -74 -11
-78 0 -2 7 -21 31 -42 53 -47 50 -61 45 -102 -37 -21 -43 -34 -58 -55 -63 -15
-3 -98 -24 -184 -45 -86 -22 -159 -39 -161 -39 -2 0 -9 24 -16 54 -7 29 -21
62 -32 72 -18 16 -21 16 -35 2 -9 -9 -31 -48 -49 -88 -18 -39 -37 -75 -41 -79
-7 -7 -213 -51 -235 -51 -3 0 3 44 13 98 10 53 27 152 38 218 15 102 131 582
146 605 2 4 46 17 96 29 113 26 130 35 126 63 -4 27 -32 35 -125 36 l-73 1 30
81 c26 72 217 454 257 516 12 18 24 23 57 23 45 0 175 21 306 49 l85 18 10
-36 c19 -65 66 -46 86 35 11 42 16 47 67 70 30 13 77 40 104 59 l49 36 47 -16
c29 -10 87 -17 152 -18 l105 -2 3 -73 c3 -78 11 -89 56 -78 24 6 57 67 70 132
l7 30 172 33 c95 19 213 46 262 61 50 15 93 28 98 29 4 0 -1 -16 -11 -36z
m-2847 -819 c94 -43 154 -138 163 -253 3 -46 1 -71 -7 -76 -7 -3 -34 -4 -61 0
-42 6 -50 10 -50 28 0 44 -47 123 -103 172 -35 32 -58 63 -65 85 -5 19 -13 43
-17 53 -7 16 -2 17 51 11 33 -4 73 -13 89 -20z m-888 -395 c45 -22 97 -86 126
-154 36 -87 48 -175 25 -174 -7 0 -83 26 -168 58 l-155 58 2 42 c3 66 75 191
110 191 9 0 36 -9 60 -21z m281 -5 c40 -6 97 -55 121 -103 25 -48 41 -129 41
-199 0 -80 -2 -81 -85 -67 -69 11 -70 11 -67 41 5 48 -17 163 -40 208 -11 22
-36 58 -54 79 -19 20 -34 41 -34 46 0 8 54 6 118 -5z m541 -39 c85 -8 160 -20
168 -27 36 -30 73 -168 73 -273 l0 -55 -122 0 c-68 0 -187 3 -264 7 l-142 6 0
76 c0 66 -15 162 -38 238 -5 19 -1 23 33 28 21 4 43 8 48 10 21 7 96 4 244
-10z m334 -29 c72 -31 120 -122 121 -231 0 -38 -3 -76 -7 -82 -5 -8 -31 -13
-66 -13 l-58 0 -6 98 c-3 53 -15 128 -26 167 -12 38 -21 71 -21 72 0 8 34 1
63 -11z m-1210 -335 c78 -33 154 -63 170 -66 15 -4 27 -10 27 -14 0 -6 -55
-389 -63 -440 -1 -10 -37 5 -122 48 -66 35 -124 67 -130 73 -5 5 44 -17 109
-51 66 -34 122 -61 126 -61 4 0 19 87 34 194 15 107 30 204 33 215 3 13 1 21
-7 21 -7 0 -82 30 -167 66 -85 36 -157 64 -159 61 -3 -3 -11 -40 -19 -83 -11
-61 -13 -66 -9 -24 7 83 15 120 26 120 5 0 73 -27 151 -59z m397 -106 c83 -12
79 1 53 -148 -12 -72 -29 -172 -38 -222 l-16 -90 -75 -3 -74 -3 0 28 c0 15 16
120 35 233 19 113 35 209 35 213 0 5 8 6 18 3 9 -2 37 -7 62 -11z m-583 -62
c-3 -10 -5 -2 -5 17 0 19 2 27 5 18 2 -10 2 -26 0 -35z m1130 25 c-3 -13 -9
-44 -12 -70 l-7 -48 -60 0 c-52 0 -59 2 -55 18 3 9 8 38 12 64 l6 47 52 4 c29
2 56 4 61 5 4 1 6 -8 3 -20z m349 8 c2 -1 -88 -420 -90 -422 0 -1 -26 -4 -57
-8 l-56 -6 32 133 c18 73 38 169 45 212 18 115 12 108 73 100 28 -4 53 -8 53
-9z m-599 -9 c-13 -35 -30 -198 -21 -207 11 -11 171 -30 261 -30 78 0 85 9
109 136 10 51 20 92 22 89 6 -5 -26 -184 -36 -205 -4 -8 -5 -31 -2 -50 5 -31
7 -27 25 49 10 46 21 79 23 72 5 -14 -12 -89 -44 -198 l-25 -83 -256 0 -256 0
7 53 c8 55 64 353 71 375 3 8 26 12 66 12 46 0 60 -3 56 -13z m402 -19 c0 -18
-4 -51 -9 -73 -7 -32 -8 -26 -3 27 5 59 3 67 -13 71 -16 4 -15 5 4 6 19 1 22
-4 21 -31z m-1292 -85 c-3 -10 -5 -2 -5 17 0 19 2 27 5 18 2 -10 2 -26 0 -35z
m24 -113 c16 -7 32 -17 35 -22 3 -5 -12 0 -35 11 -39 20 -41 24 -39 64 l1 42
4 -42 c3 -34 9 -43 34 -53z m2599 5 c-53 -39 -190 -102 -260 -120 -164 -42
-402 -64 -686 -65 l-120 0 15 74 15 75 21 -37 c49 -88 122 -90 435 -12 113 28
270 62 350 75 128 21 170 27 244 33 15 2 12 -4 -14 -23z"/>
<path d="M3795 7778 c-49 -18 -112 -66 -133 -100 -66 -109 -58 -257 20 -380
17 -27 35 -45 41 -41 5 3 7 1 4 -4 -9 -15 88 -102 152 -137 52 -28 53 -28 74
-8 12 10 55 34 95 52 97 44 99 48 72 117 -40 101 -70 154 -82 147 -7 -5 -8 -3
-3 6 11 17 -102 120 -165 150 -55 26 -64 49 -29 73 15 11 17 16 7 21 -7 3 -2
3 12 1 14 -2 46 -7 71 -10 50 -6 114 -42 177 -99 21 -20 41 -33 45 -30 3 3 4
-3 4 -13 -1 -10 4 -17 11 -15 8 1 11 -2 8 -7 -4 -5 7 -29 23 -53 17 -24 38
-66 49 -93 18 -46 19 -47 26 -22 6 24 9 25 31 15 13 -6 22 -14 20 -19 -3 -4 4
-5 15 -2 11 3 20 10 20 15 0 5 -4 6 -10 3 -5 -3 -18 -2 -27 4 -17 9 -17 10 0
16 9 4 17 11 17 17 0 5 -4 7 -8 4 -5 -3 -9 1 -9 9 0 11 4 12 13 4 19 -16 38
-1 23 17 -19 24 11 13 34 -11 10 -11 2 7 -19 40 -90 147 -208 265 -314 314
-44 20 -74 26 -145 28 -50 1 -103 -2 -120 -9z m195 -108 c8 -5 11 -10 5 -10
-5 0 -17 5 -25 10 -8 5 -10 10 -5 10 6 0 17 -5 25 -10z m-307 -154 c3 3 3 -3
0 -15 -3 -12 -10 -21 -15 -21 -6 0 -7 7 -4 16 3 8 2 13 -2 10 -5 -3 -9 1 -9 9
0 10 4 12 12 5 7 -5 14 -7 18 -4z m-43 -52 c-8 -27 -8 -26 -9 16 0 32 2 40 9
29 5 -9 6 -28 0 -45z m40 -8 c0 -6 -4 -17 -9 -24 -7 -11 -10 -10 -15 3 -11 29
-7 45 9 39 8 -4 15 -11 15 -18z m-27 -46 c3 -11 1 -18 -4 -14 -5 3 -9 12 -9
20 0 20 7 17 13 -6z m15 -55 c-3 -3 -9 2 -12 12 -6 14 -5 15 5 6 7 -7 10 -15
7 -18z m419 -57 c-3 -8 -6 -5 -6 6 -1 11 2 17 5 13 3 -3 4 -12 1 -19z"/>
<path d="M3858 7644 c-16 -8 -28 -18 -28 -23 0 -4 23 -18 52 -32 77 -36 168
-131 211 -220 20 -41 43 -91 51 -111 20 -51 60 -62 92 -24 27 31 25 60 -11
141 -54 122 -173 242 -267 270 -62 18 -66 18 -100 -1z"/>
<path d="M5935 7545 c-725 -113 -869 -138 -1155 -206 -232 -55 -240 -57 -240
-77 0 -9 13 -33 29 -52 l29 -34 88 16 c49 9 177 33 284 53 107 19 382 67 610
106 228 38 473 81 544 95 72 13 136 22 143 20 24 -10 13 3 -48 54 -71 59 -66
59 -284 25z"/>
<path d="M3713 6957 c-36 -39 -85 -126 -77 -138 4 -8 3 -9 -5 -5 -14 9 -85
-139 -75 -156 4 -6 3 -8 -3 -5 -6 4 -15 -5 -21 -21 -5 -15 -14 -36 -18 -47 -7
-18 -6 -19 11 -5 17 14 17 14 8 -5 -6 -11 -10 -36 -9 -55 0 -20 -5 -40 -14
-47 -19 -15 -30 -16 -30 -2 0 5 4 8 9 5 5 -4 7 3 4 14 -3 11 -7 20 -8 20 -2 0
-11 -24 -21 -52 -9 -29 -19 -59 -22 -65 -2 -7 1 -13 8 -13 6 0 9 4 6 8 -2 4
-2 13 2 19 5 7 11 3 18 -12 10 -20 9 -22 -4 -17 -9 3 -13 1 -9 -5 5 -7 0 -9
-13 -6 -20 5 -28 -11 -10 -22 5 -3 6 -13 3 -22 -6 -15 -7 -14 -13 3 -5 13 -13
-5 -26 -61 -25 -107 -25 -322 0 -415 28 -102 63 -156 94 -145 7 3 11 1 8 -4
-15 -24 335 -210 622 -331 68 -28 139 -61 158 -72 57 -34 38 -13 -38 43 -40
29 -89 66 -109 83 -20 17 -68 58 -108 91 -151 125 -287 320 -326 470 -18 69
-20 243 -4 331 26 145 109 388 184 535 l34 67 -40 6 c-32 5 -86 25 -140 52 -3
2 -15 -7 -26 -19z m-133 -375 c0 -3 -9 3 -20 13 -11 10 -20 23 -20 28 0 6 9 0
20 -13 11 -13 20 -25 20 -28z m-80 -143 c0 -5 -7 -9 -15 -9 -8 0 -15 7 -15 15
0 9 6 12 15 9 8 -4 15 -10 15 -15z m17 -19 c-2 -11 -6 -22 -9 -26 -4 -3 -5 2
-3 13 2 10 4 21 4 26 1 4 3 7 6 7 3 0 4 -9 2 -20z m-17 -87 c0 -19 -13 -9 -16
12 -1 8 2 13 7 9 5 -3 9 -12 9 -21z m-63 -89 c-9 -9 -28 6 -21 18 4 6 10 6 17
-1 6 -6 8 -13 4 -17z m-21 -49 c-4 -24 -16 -30 -16 -7 0 12 4 22 9 22 5 0 8
-7 7 -15z m-11 -55 c-3 -5 -1 -10 5 -10 6 0 18 -7 26 -15 9 -8 11 -15 6 -15
-6 0 -9 -11 -8 -25 2 -13 -1 -22 -5 -19 -5 3 -9 16 -9 28 0 13 -7 29 -15 36
-17 14 -20 30 -4 30 5 0 7 -4 4 -10z m1 -57 c-5 -17 -3 -29 6 -34 7 -4 9 -11
5 -15 -15 -15 -29 14 -22 45 4 17 9 31 12 31 3 0 2 -12 -1 -27z m24 -79 c0 -3
-4 -3 -9 1 -19 11 -22 -16 -6 -42 9 -14 12 -23 7 -19 -6 3 -13 0 -15 -6 -3 -7
-6 -2 -7 12 -1 14 -4 37 -6 53 -2 24 -1 26 17 17 10 -6 19 -13 19 -16z m155
-64 c3 -5 2 -10 -4 -10 -5 0 -13 5 -16 10 -3 6 -2 10 4 10 5 0 13 -4 16 -10z
m-148 -142 c-3 -8 -6 -5 -6 6 -1 11 2 17 5 13 3 -3 4 -12 1 -19z"/>
<path d="M6434 6861 c-65 -39 -80 -158 -39 -297 29 -99 112 -183 188 -191 39
-5 48 -1 80 27 173 151 -39 577 -229 461z m151 -84 c18 -26 19 -69 3 -85 -17
-17 -58 -15 -80 5 -10 9 -18 30 -18 49 0 59 62 78 95 31z"/>
<path d="M4825 6860 c-76 -18 -149 -84 -189 -169 -31 -68 -30 -216 2 -286 28
-60 73 -109 127 -138 56 -29 155 -29 211 1 61 31 121 105 140 170 21 72 15
190 -13 253 -54 120 -175 194 -278 169z m160 -126 c34 -36 35 -106 3 -128 -32
-23 -73 -20 -105 8 -37 32 -39 99 -4 127 34 27 77 24 106 -7z"/>
<path d="M3496 6544 c-4 -9 -4 -19 -1 -22 2 -3 7 3 11 12 4 9 4 19 1 22 -2 3
-7 -3 -11 -12z"/>
<path d="M6030 6444 c-92 -25 -215 -120 -245 -189 -15 -34 -7 -96 16 -133 19
-31 107 -97 204 -152 l80 -46 3 -60 c2 -32 -2 -88 -8 -124 -29 -167 -117 -257
-261 -268 -123 -9 -236 42 -259 115 -17 53 -28 63 -66 63 -82 0 -68 -120 22
-200 52 -45 108 -68 200 -81 128 -18 232 4 319 66 44 30 49 32 64 18 49 -50
158 -66 244 -37 97 33 186 149 145 190 -13 13 -20 11 -59 -22 -85 -72 -161
-90 -229 -56 -38 19 -38 21 -14 102 9 30 19 106 22 169 l7 115 59 34 c72 42
137 106 166 162 27 53 20 112 -23 194 -66 126 -225 183 -387 140z m-202 -214
c-14 -4 -32 -11 -40 -15 -7 -3 -4 1 6 9 11 9 29 16 40 15 17 -1 16 -2 -6 -9z
m542 -24 c0 -2 -8 -10 -17 -17 -16 -13 -17 -12 -4 4 13 16 21 21 21 13z"/>
<path d="M5628 5093 c-16 -2 -28 -8 -28 -12 0 -12 68 -38 145 -55 117 -26 117
-26 141 19 13 22 23 43 23 46 1 7 -237 9 -281 2z"/>
<path d="M5558 4277 c-10 -17 -36 -67 -58 -110 -22 -43 -47 -80 -55 -83 -11
-5 -7 -18 18 -66 28 -54 32 -58 38 -37 41 139 85 329 78 329 -2 0 -12 -15 -21
-33z"/>
<path d="M3438 7013 c7 -3 16 -2 19 1 4 3 -2 6 -13 5 -11 0 -14 -3 -6 -6z"/>
<path d="M3310 6979 c-198 -72 -259 -84 -290 -56 -8 6 -4 -1 10 -16 16 -19 19
-26 8 -22 -9 4 -19 1 -23 -5 -5 -8 -12 -5 -22 7 -13 17 -13 16 -3 -4 14 -30
64 -67 130 -97 61 -28 201 -62 222 -53 8 2 27 37 43 76 15 39 43 96 62 127 19
31 32 59 29 61 -2 3 -9 -5 -16 -16 -8 -15 -19 -21 -40 -19 -16 1 -26 6 -24 10
8 12 -11 9 -24 -4 -9 -9 -12 -9 -12 3 0 8 12 20 28 26 62 25 1 10 -78 -18z
m-260 -123 c0 -3 -4 -8 -10 -11 -5 -3 -10 -1 -10 4 0 6 5 11 10 11 6 0 10 -2
10 -4z"/>
<path d="M2971 6924 c0 -11 3 -14 6 -6 3 7 2 16 -1 19 -3 4 -6 -2 -5 -13z"/>
<path d="M3340 5540 c0 -6 -4 -8 -10 -5 -16 10 -280 -264 -350 -364 -36 -51
-64 -99 -64 -107 1 -7 -2 -11 -7 -9 -12 8 -62 -82 -53 -96 4 -7 3 -9 -3 -6
-21 13 -120 -227 -158 -384 -66 -275 -53 -543 42 -807 18 -53 28 -70 35 -60 7
9 8 7 4 -7 -13 -45 176 -317 206 -299 6 4 8 2 4 -4 -8 -13 85 -94 102 -87 7 3
11 1 8 -4 -7 -10 70 -61 129 -86 74 -31 416 -145 436 -145 26 0 164 57 178 74
8 9 -12 23 -80 57 -97 47 -139 85 -139 125 0 46 79 573 96 637 20 80 60 159
95 194 16 16 29 33 29 38 0 6 -22 22 -49 37 -61 35 -139 104 -176 157 -15 23
-30 39 -32 37 -8 -8 60 -132 108 -197 27 -37 49 -73 49 -80 0 -8 -26 -27 -58
-44 -125 -64 -302 -288 -326 -414 -6 -36 -42 -101 -56 -101 -13 0 -59 118 -85
219 -60 237 -58 479 5 798 51 259 192 509 344 609 46 30 157 25 286 -13 168
-48 415 -155 489 -210 29 -23 32 -23 22 -5 -17 32 -100 101 -168 139 -34 19
-147 69 -250 112 -209 87 -327 142 -432 201 -76 43 -86 47 -75 28 4 -8 3 -10
-2 -5 -5 5 -9 14 -9 20 0 7 -8 11 -18 11 -9 -1 -15 2 -12 6 3 5 -8 18 -25 30
-16 12 -30 16 -30 10z m-636 -1046 c3 -8 2 -12 -4 -9 -6 3 -10 10 -10 16 0 14
7 11 14 -7z m-19 -363 c3 -5 2 -12 -3 -15 -5 -3 -9 1 -9 9 0 17 3 19 12 6z
m25 -31 c0 -5 -2 -10 -4 -10 -3 0 -8 5 -11 10 -3 6 -1 10 4 10 6 0 11 -4 11
-10z m-23 -92 c-3 -7 -5 -2 -5 12 0 14 2 19 5 13 2 -7 2 -19 0 -25z m43 -3 c0
-2 -10 -9 -22 -15 -22 -11 -22 -10 -4 4 21 17 26 19 26 11z m-25 -45 c3 -5 1
-10 -4 -10 -6 0 -11 5 -11 10 0 6 2 10 4 10 3 0 8 -4 11 -10z"/>
<path d="M4388 4283 c7 -3 16 -2 19 1 4 3 -2 6 -13 5 -11 0 -14 -3 -6 -6z"/>
<path d="M6482 4844 c-31 -21 -29 -62 4 -74 36 -14 128 -12 142 2 18 18 15 45
-8 68 -25 25 -105 27 -138 4z"/>
<path d="M7132 4718 c-67 -86 -87 -108 -99 -108 -6 0 -45 32 -86 70 -41 39
-83 70 -94 70 -28 0 -43 -20 -43 -56 0 -33 45 -100 104 -153 l27 -25 -76 -72
c-79 -75 -92 -106 -59 -138 28 -28 53 -17 135 59 l81 76 59 -56 c82 -75 91
-79 123 -54 47 37 34 80 -52 170 -22 24 -30 39 -23 44 6 3 34 33 61 66 40 49
50 67 50 98 0 79 -50 83 -108 9z"/>
<path d="M6284 4730 c-34 -22 -88 -93 -97 -128 -17 -69 39 -71 104 -3 53 55
78 113 59 136 -16 20 -29 19 -66 -5z"/>
<path d="M6110 4410 c-37 -37 -39 -142 -4 -181 21 -23 70 -25 82 -3 6 11 4 41
-5 83 -8 36 -16 76 -18 87 -7 30 -32 37 -55 14z"/>
<path d="M6258 4144 c-5 -4 -8 -18 -8 -31 0 -40 116 -103 135 -73 7 12 -18 71
-38 88 -19 16 -79 27 -89 16z"/>
<path d="M6494 4006 c-16 -42 29 -96 94 -113 59 -14 53 52 -10 97 -44 33 -75
38 -84 16z"/>
<path d="M3974 4103 c-34 -46 -63 -108 -70 -150 l-6 -39 154 -52 c144 -49 216
-68 138 -36 -32 13 -33 14 -6 10 28 -4 28 -3 22 35 -16 101 -86 218 -143 240
-58 22 -68 21 -89 -8z"/>
<path d="M6305 3348 c-120 -17 -284 -50 -460 -94 -277 -68 -354 -69 -409 -3
-28 33 -31 31 -41 -30 l-7 -44 233 7 c399 12 603 53 768 154 l34 21 -29 -2
c-16 0 -56 -5 -89 -9z"/>
<path d="M7616 7658 c-8 -13 -21 -54 -30 -93 -8 -38 -21 -86 -29 -105 -36 -84
-121 -160 -225 -200 -69 -27 -104 -62 -100 -99 3 -22 19 -34 102 -78 155 -81
220 -158 255 -299 21 -80 44 -114 81 -114 37 0 59 33 80 125 11 49 31 108 45
130 37 64 106 121 200 165 64 31 86 47 91 65 12 47 -4 65 -100 110 -146 70
-209 148 -240 299 -9 44 -24 88 -33 98 -24 26 -79 24 -97 -4z m107 -381 c35
-35 78 -70 95 -78 18 -8 32 -16 32 -19 0 -3 -26 -23 -57 -45 -30 -22 -73 -61
-95 -86 l-39 -47 -67 67 c-37 36 -80 75 -96 86 l-29 20 54 36 c30 20 72 57 94
82 22 25 41 46 42 46 2 1 31 -28 66 -62z"/>
<path d="M1790 2326 c-162 -44 -279 -168 -316 -335 -21 -94 -14 -231 16 -317
41 -119 158 -227 281 -259 68 -18 198 -19 264 -1 99 26 171 80 159 119 -14 46
-48 109 -61 114 -7 3 -43 -8 -81 -23 -94 -40 -187 -41 -254 -1 -80 47 -118
126 -118 247 0 94 28 166 84 218 78 72 161 78 277 20 76 -38 83 -35 123 55 27
64 28 68 12 86 -23 26 -123 69 -186 81 -69 13 -144 12 -200 -4z"/>
<path d="M5088 2324 c-79 -19 -126 -44 -190 -103 -123 -112 -173 -295 -133
-484 47 -221 221 -351 449 -334 44 4 93 9 107 13 24 5 31 0 60 -45 19 -29 44
-54 56 -57 42 -11 163 41 163 70 0 7 -20 41 -44 76 l-45 64 25 29 c84 100 123
276 94 428 -34 181 -176 320 -356 349 -76 13 -116 11 -186 -6z m212 -202 c44
-23 96 -90 112 -145 21 -73 15 -176 -16 -242 l-26 -58 -33 54 c-32 52 -34 54
-72 52 -22 -2 -55 -8 -73 -14 -32 -11 -34 -13 -28 -47 3 -20 19 -55 36 -78 16
-23 30 -45 30 -48 0 -3 -21 -6 -47 -6 -96 1 -169 58 -199 156 -21 69 -18 183
6 247 49 131 191 190 310 129z"/>
<path d="M7627 2329 c-140 -33 -227 -135 -227 -267 0 -141 59 -201 279 -288
46 -18 94 -43 107 -55 29 -27 31 -68 5 -100 -18 -22 -27 -24 -109 -24 -81 0
-95 3 -152 33 -73 37 -78 35 -116 -41 -35 -67 -29 -86 36 -125 73 -44 109 -53
216 -59 218 -12 354 92 354 271 0 122 -58 205 -174 252 -23 9 -77 30 -120 48
-94 37 -126 70 -110 113 24 70 140 81 252 24 35 -18 68 -29 74 -25 6 4 24 35
39 71 36 77 32 88 -48 130 -92 49 -209 65 -306 42z"/>
<path d="M2585 2320 c-7 -11 -204 -583 -263 -762 -19 -59 -32 -114 -29 -122 5
-13 24 -16 96 -16 104 0 106 1 137 103 l18 57 162 0 162 0 10 -27 c6 -16 16
-47 23 -71 7 -23 18 -47 25 -53 7 -5 52 -9 105 -7 l94 3 -1 30 c-1 17 -41 140
-89 275 -48 135 -114 321 -147 415 -32 93 -65 173 -71 177 -18 12 -225 10
-232 -2z m174 -391 c27 -79 52 -152 56 -161 7 -17 -2 -18 -104 -18 -82 0 -111
3 -111 13 0 16 103 318 107 313 2 -2 25 -68 52 -147z"/>
<path d="M3267 2315 c-15 -15 -17 -59 -17 -444 0 -355 2 -431 14 -440 9 -8 46
-11 103 -9 l88 3 3 141 3 141 107 6 c135 6 201 30 266 93 59 59 80 125 74 233
-8 131 -67 216 -185 262 -52 20 -79 23 -249 27 -168 3 -193 2 -207 -13z m376
-192 c53 -27 72 -113 37 -170 -28 -46 -67 -63 -150 -63 l-70 0 0 124 0 125 28
3 c44 7 125 -4 155 -19z"/>
<path d="M3954 2315 c-9 -22 7 -54 149 -316 l127 -236 0 -159 c0 -111 4 -164
12 -172 13 -13 163 -17 192 -6 14 5 16 30 16 171 l0 164 59 102 c176 305 246
441 235 458 -3 5 -52 9 -110 9 l-104 0 -87 -175 c-48 -96 -90 -175 -94 -175
-3 0 -45 79 -93 175 l-88 175 -104 0 c-84 0 -106 -3 -110 -15z"/>
<path d="M5782 2321 c-21 -13 -12 -650 10 -709 52 -140 174 -212 358 -212 139
0 254 52 308 138 57 92 57 90 57 452 l0 335 -88 3 c-57 2 -94 -1 -103 -9 -11
-9 -14 -65 -14 -303 0 -283 -1 -293 -22 -336 -34 -66 -67 -85 -144 -84 -76 1
-109 20 -138 80 -18 35 -20 70 -25 344 l-6 305 -90 3 c-49 1 -96 -2 -103 -7z"/>
<path d="M6711 2316 c-8 -9 -10 -136 -9 -452 l3 -439 274 -3 c151 -1 279 2
284 7 14 14 10 153 -5 162 -7 5 -88 9 -180 9 l-168 0 0 95 0 94 143 3 142 3 0
80 0 80 -142 3 -143 3 0 89 0 90 173 2 172 3 3 78 c2 50 -1 84 -9 93 -17 20
-521 21 -538 0z"/>
<path d="M8120 2311 c-13 -26 -13 -158 1 -166 10 -7 77 -12 171 -14 l48 -1 2
-352 3 -353 80 -3 c44 -2 90 0 102 3 l23 5 0 349 0 349 110 4 c85 2 113 7 121
18 15 23 7 159 -11 170 -9 6 -151 10 -327 10 -299 0 -313 -1 -323 -19z"/>
</g>
</svg>
